<svg width="1440" height="1024" viewBox="0 0 1440 1024" fill="none" xmlns="http://www.w3.org/2000/svg">
<path d="M454 714V361.5H762.5H985.5V714H454Z" fill="black"/>
<path d="M662.5 417L697 361H642.5L609 417H662.5Z" fill="white"/>
<path d="M744.5 417L779 361H724.5L691 417H744.5Z" fill="white"/>
<path d="M827.5 417L862 361H807.5L774 417H827.5Z" fill="white"/>
<path d="M909.5 417L944 361H889.5L856 417H909.5Z" fill="white"/>
<rect x="485" y="461" width="494" height="9" fill="white"/>
<rect x="644" y="567" width="106" height="9" transform="rotate(-90 644 567)" fill="white"/>
<rect x="818" y="567" width="106" height="9" transform="rotate(-90 818 567)" fill="white"/>
<rect x="752" y="639" width="81" height="9" transform="rotate(-90 752 639)" fill="white"/>
<rect x="485" y="558" width="494" height="9" fill="white"/>
<rect x="485" y="593" width="494" height="9" fill="white"/>
<rect x="485" y="628" width="494" height="11" fill="white"/>
<rect x="485" y="665" width="494" height="11" fill="white"/>
<path d="M508.609 443.303C508.609 442.846 508.539 442.436 508.398 442.072C508.27 441.697 508.023 441.357 507.66 441.053C507.297 440.736 506.787 440.426 506.131 440.121C505.475 439.816 504.625 439.5 503.582 439.172C502.422 438.797 501.32 438.375 500.277 437.906C499.246 437.438 498.332 436.893 497.535 436.271C496.75 435.639 496.129 434.906 495.672 434.074C495.227 433.242 495.004 432.275 495.004 431.174C495.004 430.107 495.238 429.141 495.707 428.273C496.176 427.395 496.832 426.645 497.676 426.023C498.52 425.391 499.516 424.904 500.664 424.564C501.824 424.225 503.096 424.055 504.479 424.055C506.365 424.055 508.012 424.395 509.418 425.074C510.824 425.754 511.914 426.686 512.688 427.869C513.473 429.053 513.865 430.406 513.865 431.93H508.627C508.627 431.18 508.469 430.523 508.152 429.961C507.848 429.387 507.379 428.936 506.746 428.607C506.125 428.279 505.34 428.115 504.391 428.115C503.477 428.115 502.715 428.256 502.105 428.537C501.496 428.807 501.039 429.176 500.734 429.645C500.43 430.102 500.277 430.617 500.277 431.191C500.277 431.625 500.383 432.018 500.594 432.369C500.816 432.721 501.145 433.049 501.578 433.354C502.012 433.658 502.545 433.945 503.178 434.215C503.811 434.484 504.543 434.748 505.375 435.006C506.77 435.428 507.994 435.902 509.049 436.43C510.115 436.957 511.006 437.549 511.721 438.205C512.436 438.861 512.975 439.605 513.338 440.438C513.701 441.27 513.883 442.213 513.883 443.268C513.883 444.381 513.666 445.377 513.232 446.256C512.799 447.135 512.172 447.879 511.352 448.488C510.531 449.098 509.553 449.561 508.416 449.877C507.279 450.193 506.008 450.352 504.602 450.352C503.336 450.352 502.088 450.188 500.857 449.859C499.627 449.52 498.508 449.01 497.5 448.33C496.504 447.65 495.707 446.783 495.109 445.729C494.512 444.674 494.213 443.426 494.213 441.984H499.504C499.504 442.781 499.627 443.455 499.873 444.006C500.119 444.557 500.465 445.002 500.91 445.342C501.367 445.682 501.906 445.928 502.527 446.08C503.16 446.232 503.852 446.309 504.602 446.309C505.516 446.309 506.266 446.18 506.852 445.922C507.449 445.664 507.889 445.307 508.17 444.85C508.463 444.393 508.609 443.877 508.609 443.303ZM531.072 424.406V450H525.816V424.406H531.072ZM538.947 424.406V428.537H518.064V424.406H538.947ZM558.246 424.406H563.502V441.316C563.502 443.285 563.08 444.943 562.236 446.291C561.404 447.639 560.25 448.652 558.773 449.332C557.308 450.012 555.621 450.352 553.711 450.352C551.8 450.352 550.101 450.012 548.613 449.332C547.136 448.652 545.976 447.639 545.132 446.291C544.3 444.943 543.884 443.285 543.884 441.316V424.406H549.158V441.316C549.158 442.465 549.34 443.402 549.703 444.129C550.066 444.855 550.588 445.389 551.267 445.729C551.959 446.068 552.773 446.238 553.711 446.238C554.672 446.238 555.486 446.068 556.154 445.729C556.834 445.389 557.349 444.855 557.701 444.129C558.064 443.402 558.246 442.465 558.246 441.316V424.406ZM577.861 450H572.289L572.324 445.887H577.861C579.244 445.887 580.41 445.576 581.359 444.955C582.308 444.322 583.023 443.402 583.503 442.195C583.996 440.988 584.242 439.529 584.242 437.818V436.57C584.242 435.258 584.101 434.104 583.82 433.107C583.55 432.111 583.146 431.273 582.607 430.594C582.068 429.914 581.406 429.404 580.621 429.064C579.835 428.713 578.933 428.537 577.914 428.537H572.183V424.406H577.914C579.625 424.406 581.189 424.699 582.607 425.285C584.037 425.859 585.273 426.686 586.316 427.764C587.359 428.842 588.162 430.131 588.724 431.631C589.298 433.119 589.585 434.777 589.585 436.605V437.818C589.585 439.635 589.298 441.293 588.724 442.793C588.162 444.293 587.359 445.582 586.316 446.66C585.285 447.727 584.048 448.553 582.607 449.139C581.177 449.713 579.595 450 577.861 450ZM575.277 424.406V450H570.003V424.406H575.277ZM601.185 424.406V450H595.929V424.406H601.185ZM629.308 436.605V437.818C629.308 439.764 629.044 441.51 628.517 443.057C627.989 444.604 627.245 445.922 626.284 447.012C625.323 448.09 624.175 448.916 622.839 449.49C621.515 450.064 620.044 450.352 618.427 450.352C616.821 450.352 615.351 450.064 614.015 449.49C612.691 448.916 611.542 448.09 610.57 447.012C609.597 445.922 608.841 444.604 608.302 443.057C607.775 441.51 607.511 439.764 607.511 437.818V436.605C607.511 434.648 607.775 432.902 608.302 431.367C608.829 429.82 609.573 428.502 610.534 427.412C611.507 426.322 612.655 425.49 613.98 424.916C615.316 424.342 616.786 424.055 618.392 424.055C620.009 424.055 621.48 424.342 622.804 424.916C624.14 425.49 625.288 426.322 626.249 427.412C627.222 428.502 627.972 429.82 628.499 431.367C629.038 432.902 629.308 434.648 629.308 436.605ZM623.982 437.818V436.57C623.982 435.211 623.859 434.016 623.613 432.984C623.366 431.953 623.003 431.086 622.523 430.383C622.042 429.68 621.456 429.152 620.765 428.801C620.073 428.438 619.282 428.256 618.392 428.256C617.501 428.256 616.71 428.438 616.019 428.801C615.339 429.152 614.759 429.68 614.279 430.383C613.81 431.086 613.452 431.953 613.206 432.984C612.96 434.016 612.837 435.211 612.837 436.57V437.818C612.837 439.166 612.96 440.361 613.206 441.404C613.452 442.436 613.816 443.309 614.296 444.023C614.777 444.727 615.363 445.26 616.054 445.623C616.745 445.986 617.536 446.168 618.427 446.168C619.318 446.168 620.109 445.986 620.8 445.623C621.491 445.26 622.071 444.727 622.54 444.023C623.009 443.309 623.366 442.436 623.613 441.404C623.859 440.361 623.982 439.166 623.982 437.818Z" fill="white"/>
<path d="M531.545 488.25C531.545 488.009 531.509 487.794 531.438 487.605C531.366 487.41 531.236 487.231 531.047 487.068C530.858 486.906 530.591 486.743 530.246 486.58C529.901 486.411 529.449 486.238 528.889 486.062C528.251 485.854 527.642 485.62 527.062 485.359C526.49 485.092 525.979 484.783 525.529 484.432C525.08 484.08 524.725 483.67 524.465 483.201C524.211 482.732 524.084 482.186 524.084 481.561C524.084 480.955 524.217 480.408 524.484 479.92C524.751 479.432 525.126 479.015 525.607 478.67C526.089 478.318 526.656 478.051 527.307 477.869C527.958 477.68 528.674 477.586 529.455 477.586C530.497 477.586 531.411 477.771 532.199 478.143C532.993 478.507 533.612 479.021 534.055 479.686C534.497 480.343 534.719 481.108 534.719 481.98H531.555C531.555 481.596 531.473 481.258 531.311 480.965C531.154 480.665 530.913 480.431 530.588 480.262C530.269 480.092 529.868 480.008 529.387 480.008C528.918 480.008 528.524 480.079 528.205 480.223C527.893 480.359 527.655 480.548 527.492 480.789C527.336 481.03 527.258 481.294 527.258 481.58C527.258 481.808 527.316 482.016 527.434 482.205C527.557 482.387 527.733 482.56 527.961 482.723C528.195 482.879 528.482 483.029 528.82 483.172C529.159 483.315 529.546 483.452 529.982 483.582C530.744 483.823 531.418 484.09 532.004 484.383C532.596 484.676 533.094 485.008 533.498 485.379C533.902 485.75 534.204 486.17 534.406 486.639C534.615 487.107 534.719 487.638 534.719 488.23C534.719 488.862 534.595 489.422 534.348 489.91C534.107 490.398 533.755 490.815 533.293 491.16C532.837 491.499 532.29 491.756 531.652 491.932C531.014 492.107 530.301 492.195 529.514 492.195C528.798 492.195 528.091 492.104 527.395 491.922C526.698 491.733 526.066 491.447 525.5 491.062C524.94 490.678 524.491 490.19 524.152 489.598C523.82 488.999 523.654 488.289 523.654 487.469H526.838C526.838 487.898 526.9 488.263 527.023 488.562C527.147 488.855 527.323 489.093 527.551 489.275C527.785 489.458 528.068 489.588 528.4 489.666C528.732 489.744 529.104 489.783 529.514 489.783C529.989 489.783 530.373 489.718 530.666 489.588C530.965 489.451 531.187 489.266 531.33 489.031C531.473 488.797 531.545 488.536 531.545 488.25ZM545.968 487.234H549.132C549.08 488.211 548.813 489.074 548.331 489.822C547.856 490.564 547.195 491.147 546.348 491.57C545.502 491.987 544.496 492.195 543.331 492.195C542.4 492.195 541.567 492.036 540.831 491.717C540.095 491.398 539.47 490.942 538.956 490.35C538.448 489.751 538.057 489.031 537.784 488.191C537.517 487.345 537.384 486.391 537.384 485.33V484.461C537.384 483.4 537.524 482.446 537.804 481.6C538.083 480.753 538.484 480.031 539.005 479.432C539.526 478.833 540.151 478.374 540.88 478.055C541.609 477.736 542.423 477.576 543.321 477.576C544.532 477.576 545.554 477.794 546.387 478.23C547.221 478.667 547.865 479.266 548.321 480.027C548.783 480.789 549.06 481.658 549.151 482.635H545.977C545.951 482.081 545.847 481.616 545.665 481.238C545.483 480.854 545.203 480.564 544.825 480.369C544.447 480.174 543.946 480.076 543.321 480.076C542.865 480.076 542.465 480.161 542.12 480.33C541.781 480.499 541.498 480.763 541.27 481.121C541.049 481.479 540.883 481.935 540.772 482.488C540.662 483.035 540.606 483.686 540.606 484.441V485.33C540.606 486.079 540.655 486.727 540.753 487.273C540.85 487.82 541.007 488.273 541.221 488.631C541.443 488.989 541.726 489.256 542.071 489.432C542.416 489.607 542.836 489.695 543.331 489.695C543.897 489.695 544.369 489.607 544.747 489.432C545.124 489.249 545.414 488.976 545.616 488.611C545.818 488.247 545.935 487.788 545.968 487.234ZM561.767 489.539V492H554.199V489.539H561.767ZM555.283 477.781V492H552.099V477.781H555.283ZM560.791 483.504V485.887H554.199V483.504H560.791ZM561.777 477.781V480.252H554.199V477.781H561.777ZM576.258 477.781V492H573.084L567.713 482.811V492H564.53V477.781H567.713L573.094 486.971V477.781H576.258ZM589.48 489.539V492H581.911V489.539H589.48ZM582.995 477.781V492H579.812V477.781H582.995ZM588.503 483.504V485.887H581.911V483.504H588.503ZM589.489 477.781V480.252H581.911V477.781H589.489Z" fill="white"/>
<path d="M714.793 477.781V492H711.619V477.781H714.793ZM719.119 477.781V480.252H707.381V477.781H719.119ZM726.686 480.486L723.014 492H719.616L724.88 477.781H727.028L726.686 480.486ZM729.733 492L726.052 480.486L725.671 477.781H727.848L733.132 492H729.733ZM729.577 486.707V489.168H722.165V486.707H729.577ZM738.697 477.781V492H735.513V477.781H738.697ZM747.193 477.781L741.627 484.891L738.384 488.406L737.808 485.447L739.947 482.381L743.287 477.781H747.193ZM743.502 492L739.576 485.506L741.998 483.621L747.271 492H743.502ZM759.135 489.539V492H751.567V489.539H759.135ZM752.651 477.781V492H749.467V477.781H752.651ZM758.159 483.504V485.887H751.567V483.504H758.159ZM759.145 477.781V480.252H751.567V477.781H759.145Z" fill="white"/>
<path d="M879.172 477.781H884.631C885.718 477.781 886.659 477.944 887.453 478.27C888.254 478.595 888.869 479.077 889.299 479.715C889.729 480.353 889.943 481.141 889.943 482.078C889.943 482.859 889.816 483.523 889.562 484.07C889.309 484.617 888.951 485.07 888.488 485.428C888.033 485.786 887.499 486.076 886.887 486.297L885.852 486.863H881.203L881.184 484.393H884.641C885.116 484.393 885.51 484.308 885.822 484.139C886.135 483.969 886.369 483.732 886.525 483.426C886.688 483.113 886.77 482.749 886.77 482.332C886.77 481.902 886.688 481.531 886.525 481.219C886.363 480.906 886.122 480.669 885.803 480.506C885.49 480.337 885.1 480.252 884.631 480.252H882.355V492H879.172V477.781ZM887.043 492L883.85 485.682L887.209 485.672L890.451 491.854V492H887.043ZM905.157 484.578V485.213C905.157 486.294 905.007 487.264 904.708 488.123C904.415 488.982 903.995 489.715 903.448 490.32C902.908 490.926 902.263 491.391 901.514 491.717C900.772 492.036 899.949 492.195 899.044 492.195C898.139 492.195 897.312 492.036 896.563 491.717C895.815 491.391 895.164 490.926 894.61 490.32C894.063 489.715 893.64 488.982 893.341 488.123C893.041 487.264 892.891 486.294 892.891 485.213V484.578C892.891 483.497 893.041 482.527 893.341 481.668C893.64 480.802 894.06 480.066 894.6 479.461C895.147 478.855 895.795 478.393 896.544 478.074C897.292 477.749 898.119 477.586 899.024 477.586C899.929 477.586 900.756 477.749 901.505 478.074C902.253 478.393 902.898 478.855 903.438 479.461C903.985 480.066 904.408 480.802 904.708 481.668C905.007 482.527 905.157 483.497 905.157 484.578ZM901.944 485.213V484.559C901.944 483.836 901.879 483.198 901.749 482.645C901.619 482.085 901.43 481.616 901.182 481.238C900.935 480.861 900.629 480.577 900.264 480.389C899.9 480.193 899.486 480.096 899.024 480.096C898.542 480.096 898.123 480.193 897.764 480.389C897.406 480.577 897.104 480.861 896.856 481.238C896.615 481.616 896.43 482.085 896.3 482.645C896.176 483.198 896.114 483.836 896.114 484.559V485.213C896.114 485.929 896.176 486.567 896.3 487.127C896.43 487.68 896.619 488.149 896.866 488.533C897.113 488.917 897.416 489.207 897.774 489.402C898.139 489.598 898.562 489.695 899.044 489.695C899.506 489.695 899.916 489.598 900.274 489.402C900.639 489.207 900.945 488.917 901.192 488.533C901.44 488.149 901.625 487.68 901.749 487.127C901.879 486.567 901.944 485.929 901.944 485.213ZM917.587 489.539V492H910.41V489.539H917.587ZM911.494 477.781V492H908.31V477.781H911.494ZM929.627 489.539V492H922.45V489.539H929.627ZM923.534 477.781V492H920.35V477.781H923.534Z" fill="white"/>
<path d="M500.674 585H497.549L497.568 582.539H500.674C501.383 582.539 501.982 582.376 502.471 582.051C502.959 581.719 503.33 581.23 503.584 580.586C503.838 579.935 503.965 579.144 503.965 578.213V577.559C503.965 576.855 503.893 576.237 503.75 575.703C503.607 575.163 503.395 574.71 503.115 574.346C502.835 573.981 502.487 573.708 502.07 573.525C501.66 573.343 501.188 573.252 500.654 573.252H497.49V570.781H500.654C501.618 570.781 502.497 570.944 503.291 571.27C504.092 571.595 504.782 572.061 505.361 572.666C505.947 573.271 506.4 573.988 506.719 574.814C507.038 575.641 507.197 576.562 507.197 577.578V578.213C507.197 579.222 507.038 580.143 506.719 580.977C506.4 581.803 505.947 582.52 505.361 583.125C504.782 583.724 504.095 584.186 503.301 584.512C502.507 584.837 501.631 585 500.674 585ZM499.355 570.781V585H496.172V570.781H499.355ZM516.534 573.486L512.862 585H509.464L514.727 570.781H516.876L516.534 573.486ZM519.581 585L515.899 573.486L515.518 570.781H517.696L522.979 585H519.581ZM519.425 579.707V582.168H512.012V579.707H519.425ZM531.291 570.781V585H528.117V570.781H531.291ZM535.617 570.781V573.252H523.879V570.781H535.617ZM548.557 582.539V585H540.989V582.539H548.557ZM542.073 570.781V585H538.889V570.781H542.073ZM547.58 576.504V578.887H540.989V576.504H547.58ZM548.567 570.781V573.252H540.989V570.781H548.567Z" fill="white"/>
<path d="M501.777 618.059H498.203V615.588H501.777C502.305 615.588 502.728 615.5 503.047 615.324C503.372 615.148 503.61 614.908 503.76 614.602C503.916 614.289 503.994 613.938 503.994 613.547C503.994 613.143 503.916 612.769 503.76 612.424C503.61 612.072 503.372 611.789 503.047 611.574C502.728 611.359 502.305 611.252 501.777 611.252H499.355V623H496.172V608.781H501.777C502.91 608.781 503.88 608.986 504.688 609.396C505.501 609.807 506.123 610.37 506.553 611.086C506.989 611.796 507.207 612.609 507.207 613.527C507.207 614.445 506.989 615.243 506.553 615.92C506.123 616.597 505.501 617.124 504.688 617.502C503.88 617.873 502.91 618.059 501.777 618.059ZM510.841 608.781H516.3C517.387 608.781 518.328 608.944 519.122 609.27C519.923 609.595 520.538 610.077 520.968 610.715C521.397 611.353 521.612 612.141 521.612 613.078C521.612 613.859 521.485 614.523 521.231 615.07C520.977 615.617 520.619 616.07 520.157 616.428C519.701 616.786 519.167 617.076 518.555 617.297L517.52 617.863H512.872L512.852 615.393H516.309C516.785 615.393 517.179 615.308 517.491 615.139C517.804 614.969 518.038 614.732 518.194 614.426C518.357 614.113 518.438 613.749 518.438 613.332C518.438 612.902 518.357 612.531 518.194 612.219C518.031 611.906 517.79 611.669 517.471 611.506C517.159 611.337 516.768 611.252 516.3 611.252H514.024V623H510.841V608.781ZM518.712 623L515.518 616.682L518.878 616.672L522.12 622.854V623H518.712ZM537.326 615.578V616.213C537.326 617.294 537.176 618.264 536.877 619.123C536.584 619.982 536.164 620.715 535.617 621.32C535.076 621.926 534.432 622.391 533.683 622.717C532.941 623.036 532.117 623.195 531.212 623.195C530.308 623.195 529.481 623.036 528.732 622.717C527.983 622.391 527.332 621.926 526.779 621.32C526.232 620.715 525.809 619.982 525.509 619.123C525.21 618.264 525.06 617.294 525.06 616.213V615.578C525.06 614.497 525.21 613.527 525.509 612.668C525.809 611.802 526.229 611.066 526.769 610.461C527.316 609.855 527.964 609.393 528.712 609.074C529.461 608.749 530.288 608.586 531.193 608.586C532.098 608.586 532.925 608.749 533.673 609.074C534.422 609.393 535.067 609.855 535.607 610.461C536.154 611.066 536.577 611.802 536.877 612.668C537.176 613.527 537.326 614.497 537.326 615.578ZM534.113 616.213V615.559C534.113 614.836 534.048 614.198 533.918 613.645C533.787 613.085 533.599 612.616 533.351 612.238C533.104 611.861 532.798 611.577 532.433 611.389C532.069 611.193 531.655 611.096 531.193 611.096C530.711 611.096 530.291 611.193 529.933 611.389C529.575 611.577 529.272 611.861 529.025 612.238C528.784 612.616 528.599 613.085 528.468 613.645C528.345 614.198 528.283 614.836 528.283 615.559V616.213C528.283 616.929 528.345 617.567 528.468 618.127C528.599 618.68 528.787 619.149 529.035 619.533C529.282 619.917 529.585 620.207 529.943 620.402C530.308 620.598 530.731 620.695 531.212 620.695C531.675 620.695 532.085 620.598 532.443 620.402C532.808 620.207 533.114 619.917 533.361 619.533C533.608 619.149 533.794 618.68 533.918 618.127C534.048 617.567 534.113 616.929 534.113 616.213ZM545.481 623H542.356L542.375 620.539H545.481C546.19 620.539 546.789 620.376 547.278 620.051C547.766 619.719 548.137 619.23 548.391 618.586C548.645 617.935 548.772 617.144 548.772 616.213V615.559C548.772 614.855 548.7 614.237 548.557 613.703C548.414 613.163 548.202 612.71 547.922 612.346C547.642 611.981 547.294 611.708 546.877 611.525C546.467 611.343 545.995 611.252 545.461 611.252H542.297V608.781H545.461C546.425 608.781 547.304 608.944 548.098 609.27C548.899 609.595 549.589 610.061 550.168 610.666C550.754 611.271 551.207 611.988 551.526 612.814C551.845 613.641 552.004 614.562 552.004 615.578V616.213C552.004 617.222 551.845 618.143 551.526 618.977C551.207 619.803 550.754 620.52 550.168 621.125C549.589 621.724 548.902 622.186 548.108 622.512C547.314 622.837 546.438 623 545.481 623ZM544.162 608.781V623H540.979V608.781H544.162ZM554.505 621.555C554.505 621.112 554.661 620.741 554.974 620.441C555.293 620.142 555.706 619.992 556.214 619.992C556.728 619.992 557.139 620.142 557.445 620.441C557.757 620.741 557.913 621.112 557.913 621.555C557.913 621.991 557.757 622.359 557.445 622.658C557.139 622.958 556.728 623.107 556.214 623.107C555.706 623.107 555.293 622.958 554.974 622.658C554.661 622.359 554.505 621.991 554.505 621.555ZM570.307 618.234H573.471C573.419 619.211 573.152 620.074 572.67 620.822C572.195 621.564 571.534 622.147 570.688 622.57C569.841 622.987 568.835 623.195 567.67 623.195C566.739 623.195 565.906 623.036 565.17 622.717C564.434 622.398 563.809 621.942 563.295 621.35C562.787 620.751 562.396 620.031 562.123 619.191C561.856 618.345 561.723 617.391 561.723 616.33V615.461C561.723 614.4 561.863 613.446 562.143 612.6C562.423 611.753 562.823 611.031 563.344 610.432C563.865 609.833 564.49 609.374 565.219 609.055C565.948 608.736 566.762 608.576 567.66 608.576C568.871 608.576 569.893 608.794 570.727 609.23C571.56 609.667 572.204 610.266 572.66 611.027C573.122 611.789 573.399 612.658 573.49 613.635H570.316C570.29 613.081 570.186 612.616 570.004 612.238C569.822 611.854 569.542 611.564 569.164 611.369C568.786 611.174 568.285 611.076 567.66 611.076C567.204 611.076 566.804 611.161 566.459 611.33C566.12 611.499 565.837 611.763 565.609 612.121C565.388 612.479 565.222 612.935 565.111 613.488C565.001 614.035 564.945 614.686 564.945 615.441V616.33C564.945 617.079 564.994 617.727 565.092 618.273C565.189 618.82 565.346 619.273 565.561 619.631C565.782 619.989 566.065 620.256 566.41 620.432C566.755 620.607 567.175 620.695 567.67 620.695C568.236 620.695 568.708 620.607 569.086 620.432C569.464 620.249 569.753 619.976 569.955 619.611C570.157 619.247 570.274 618.788 570.307 618.234ZM588.794 615.578V616.213C588.794 617.294 588.644 618.264 588.345 619.123C588.052 619.982 587.632 620.715 587.085 621.32C586.544 621.926 585.9 622.391 585.151 622.717C584.409 623.036 583.585 623.195 582.68 623.195C581.776 623.195 580.949 623.036 580.2 622.717C579.451 622.391 578.8 621.926 578.247 621.32C577.7 620.715 577.277 619.982 576.977 619.123C576.678 618.264 576.528 617.294 576.528 616.213V615.578C576.528 614.497 576.678 613.527 576.977 612.668C577.277 611.802 577.697 611.066 578.237 610.461C578.784 609.855 579.432 609.393 580.18 609.074C580.929 608.749 581.756 608.586 582.661 608.586C583.566 608.586 584.393 608.749 585.141 609.074C585.89 609.393 586.535 609.855 587.075 610.461C587.622 611.066 588.045 611.802 588.345 612.668C588.644 613.527 588.794 614.497 588.794 615.578ZM585.581 616.213V615.559C585.581 614.836 585.516 614.198 585.386 613.645C585.255 613.085 585.067 612.616 584.819 612.238C584.572 611.861 584.266 611.577 583.901 611.389C583.537 611.193 583.123 611.096 582.661 611.096C582.179 611.096 581.759 611.193 581.401 611.389C581.043 611.577 580.74 611.861 580.493 612.238C580.252 612.616 580.067 613.085 579.936 613.645C579.813 614.198 579.751 614.836 579.751 615.559V616.213C579.751 616.929 579.813 617.567 579.936 618.127C580.067 618.68 580.255 619.149 580.503 619.533C580.75 619.917 581.053 620.207 581.411 620.402C581.776 620.598 582.199 620.695 582.68 620.695C583.143 620.695 583.553 620.598 583.911 620.402C584.276 620.207 584.582 619.917 584.829 619.533C585.076 619.149 585.262 618.68 585.386 618.127C585.516 617.567 585.581 616.929 585.581 616.213ZM591.304 621.555C591.304 621.112 591.461 620.741 591.773 620.441C592.092 620.142 592.505 619.992 593.013 619.992C593.528 619.992 593.938 620.142 594.244 620.441C594.556 620.741 594.713 621.112 594.713 621.555C594.713 621.991 594.556 622.359 594.244 622.658C593.938 622.958 593.528 623.107 593.013 623.107C592.505 623.107 592.092 622.958 591.773 622.658C591.461 622.359 591.304 621.991 591.304 621.555Z" fill="white"/>
<path d="M498.674 660H495.549L495.568 657.539H498.674C499.383 657.539 499.982 657.376 500.471 657.051C500.959 656.719 501.33 656.23 501.584 655.586C501.838 654.935 501.965 654.144 501.965 653.213V652.559C501.965 651.855 501.893 651.237 501.75 650.703C501.607 650.163 501.395 649.71 501.115 649.346C500.835 648.981 500.487 648.708 500.07 648.525C499.66 648.343 499.188 648.252 498.654 648.252H495.49V645.781H498.654C499.618 645.781 500.497 645.944 501.291 646.27C502.092 646.595 502.782 647.061 503.361 647.666C503.947 648.271 504.4 648.988 504.719 649.814C505.038 650.641 505.197 651.562 505.197 652.578V653.213C505.197 654.222 505.038 655.143 504.719 655.977C504.4 656.803 503.947 657.52 503.361 658.125C502.782 658.724 502.095 659.186 501.301 659.512C500.507 659.837 499.631 660 498.674 660ZM497.355 645.781V660H494.172V645.781H497.355ZM511.529 645.781V660H508.355V645.781H511.529ZM515.098 645.781H520.557C521.644 645.781 522.585 645.944 523.379 646.27C524.18 646.595 524.795 647.077 525.225 647.715C525.654 648.353 525.869 649.141 525.869 650.078C525.869 650.859 525.742 651.523 525.488 652.07C525.234 652.617 524.876 653.07 524.414 653.428C523.958 653.786 523.424 654.076 522.812 654.297L521.777 654.863H517.129L517.109 652.393H520.566C521.042 652.393 521.436 652.308 521.748 652.139C522.061 651.969 522.295 651.732 522.451 651.426C522.614 651.113 522.695 650.749 522.695 650.332C522.695 649.902 522.614 649.531 522.451 649.219C522.288 648.906 522.048 648.669 521.729 648.506C521.416 648.337 521.025 648.252 520.557 648.252H518.281V660H515.098V645.781ZM522.969 660L519.775 653.682L523.135 653.672L526.377 659.854V660H522.969ZM538.695 657.539V660H531.127V657.539H538.695ZM532.211 645.781V660H529.027V645.781H532.211ZM537.719 651.504V653.887H531.127V651.504H537.719ZM538.705 645.781V648.252H531.127V645.781H538.705ZM549.432 655.234H552.596C552.544 656.211 552.277 657.074 551.795 657.822C551.32 658.564 550.659 659.147 549.812 659.57C548.966 659.987 547.96 660.195 546.795 660.195C545.864 660.195 545.031 660.036 544.295 659.717C543.559 659.398 542.934 658.942 542.42 658.35C541.912 657.751 541.521 657.031 541.248 656.191C540.981 655.345 540.848 654.391 540.848 653.33V652.461C540.848 651.4 540.988 650.446 541.268 649.6C541.548 648.753 541.948 648.031 542.469 647.432C542.99 646.833 543.615 646.374 544.344 646.055C545.073 645.736 545.887 645.576 546.785 645.576C547.996 645.576 549.018 645.794 549.852 646.23C550.685 646.667 551.329 647.266 551.785 648.027C552.247 648.789 552.524 649.658 552.615 650.635H549.441C549.415 650.081 549.311 649.616 549.129 649.238C548.947 648.854 548.667 648.564 548.289 648.369C547.911 648.174 547.41 648.076 546.785 648.076C546.329 648.076 545.929 648.161 545.584 648.33C545.245 648.499 544.962 648.763 544.734 649.121C544.513 649.479 544.347 649.935 544.236 650.488C544.126 651.035 544.07 651.686 544.07 652.441V653.33C544.07 654.079 544.119 654.727 544.217 655.273C544.314 655.82 544.471 656.273 544.686 656.631C544.907 656.989 545.19 657.256 545.535 657.432C545.88 657.607 546.3 657.695 546.795 657.695C547.361 657.695 547.833 657.607 548.211 657.432C548.589 657.249 548.878 656.976 549.08 656.611C549.282 656.247 549.399 655.788 549.432 655.234ZM561.691 645.781V660H558.518V645.781H561.691ZM566.018 645.781V648.252H554.279V645.781H566.018ZM580.172 652.578V653.213C580.172 654.294 580.022 655.264 579.723 656.123C579.43 656.982 579.01 657.715 578.463 658.32C577.923 658.926 577.278 659.391 576.529 659.717C575.787 660.036 574.964 660.195 574.059 660.195C573.154 660.195 572.327 660.036 571.578 659.717C570.829 659.391 570.178 658.926 569.625 658.32C569.078 657.715 568.655 656.982 568.355 656.123C568.056 655.264 567.906 654.294 567.906 653.213V652.578C567.906 651.497 568.056 650.527 568.355 649.668C568.655 648.802 569.075 648.066 569.615 647.461C570.162 646.855 570.81 646.393 571.559 646.074C572.307 645.749 573.134 645.586 574.039 645.586C574.944 645.586 575.771 645.749 576.52 646.074C577.268 646.393 577.913 646.855 578.453 647.461C579 648.066 579.423 648.802 579.723 649.668C580.022 650.527 580.172 651.497 580.172 652.578ZM576.959 653.213V652.559C576.959 651.836 576.894 651.198 576.764 650.645C576.633 650.085 576.445 649.616 576.197 649.238C575.95 648.861 575.644 648.577 575.279 648.389C574.915 648.193 574.501 648.096 574.039 648.096C573.557 648.096 573.137 648.193 572.779 648.389C572.421 648.577 572.118 648.861 571.871 649.238C571.63 649.616 571.445 650.085 571.314 650.645C571.191 651.198 571.129 651.836 571.129 652.559V653.213C571.129 653.929 571.191 654.567 571.314 655.127C571.445 655.68 571.633 656.149 571.881 656.533C572.128 656.917 572.431 657.207 572.789 657.402C573.154 657.598 573.577 657.695 574.059 657.695C574.521 657.695 574.931 657.598 575.289 657.402C575.654 657.207 575.96 656.917 576.207 656.533C576.454 656.149 576.64 655.68 576.764 655.127C576.894 654.567 576.959 653.929 576.959 653.213ZM583.125 645.781H588.584C589.671 645.781 590.612 645.944 591.406 646.27C592.207 646.595 592.822 647.077 593.252 647.715C593.682 648.353 593.896 649.141 593.896 650.078C593.896 650.859 593.77 651.523 593.516 652.07C593.262 652.617 592.904 653.07 592.441 653.428C591.986 653.786 591.452 654.076 590.84 654.297L589.805 654.863H585.156L585.137 652.393H588.594C589.069 652.393 589.463 652.308 589.775 652.139C590.088 651.969 590.322 651.732 590.479 651.426C590.641 651.113 590.723 650.749 590.723 650.332C590.723 649.902 590.641 649.531 590.479 649.219C590.316 648.906 590.075 648.669 589.756 648.506C589.443 648.337 589.053 648.252 588.584 648.252H586.309V660H583.125V645.781ZM590.996 660L587.803 653.682L591.162 653.672L594.404 659.854V660H590.996Z" fill="white"/>
<path d="M504.346 691.234H507.51C507.458 692.211 507.191 693.074 506.709 693.822C506.234 694.564 505.573 695.147 504.727 695.57C503.88 695.987 502.874 696.195 501.709 696.195C500.778 696.195 499.945 696.036 499.209 695.717C498.473 695.398 497.848 694.942 497.334 694.35C496.826 693.751 496.436 693.031 496.162 692.191C495.895 691.345 495.762 690.391 495.762 689.33V688.461C495.762 687.4 495.902 686.446 496.182 685.6C496.462 684.753 496.862 684.031 497.383 683.432C497.904 682.833 498.529 682.374 499.258 682.055C499.987 681.736 500.801 681.576 501.699 681.576C502.91 681.576 503.932 681.794 504.766 682.23C505.599 682.667 506.243 683.266 506.699 684.027C507.161 684.789 507.438 685.658 507.529 686.635H504.355C504.329 686.081 504.225 685.616 504.043 685.238C503.861 684.854 503.581 684.564 503.203 684.369C502.826 684.174 502.324 684.076 501.699 684.076C501.243 684.076 500.843 684.161 500.498 684.33C500.16 684.499 499.876 684.763 499.648 685.121C499.427 685.479 499.261 685.935 499.15 686.488C499.04 687.035 498.984 687.686 498.984 688.441V689.33C498.984 690.079 499.033 690.727 499.131 691.273C499.229 691.82 499.385 692.273 499.6 692.631C499.821 692.989 500.104 693.256 500.449 693.432C500.794 693.607 501.214 693.695 501.709 693.695C502.275 693.695 502.747 693.607 503.125 693.432C503.503 693.249 503.792 692.976 503.994 692.611C504.196 692.247 504.313 691.788 504.346 691.234ZM516.186 684.486L512.514 696H509.115L514.379 681.781H516.527L516.186 684.486ZM519.232 696L515.551 684.486L515.17 681.781H517.348L522.631 696H519.232ZM519.076 690.707V693.168H511.664V690.707H519.076ZM526.336 681.781H528.973L532.391 691.947L535.799 681.781H538.436L533.455 696H531.316L526.336 681.781ZM524.812 681.781H527.498L527.996 692.318V696H524.812V681.781ZM537.273 681.781H539.969V696H536.775V692.318L537.273 681.781ZM553 693.539V696H545.432V693.539H553ZM546.516 681.781V696H543.332V681.781H546.516ZM552.023 687.504V689.887H545.432V687.504H552.023ZM553.01 681.781V684.252H545.432V681.781H553.01ZM555.562 681.781H561.021C562.109 681.781 563.049 681.944 563.844 682.27C564.645 682.595 565.26 683.077 565.689 683.715C566.119 684.353 566.334 685.141 566.334 686.078C566.334 686.859 566.207 687.523 565.953 688.07C565.699 688.617 565.341 689.07 564.879 689.428C564.423 689.786 563.889 690.076 563.277 690.297L562.242 690.863H557.594L557.574 688.393H561.031C561.507 688.393 561.9 688.308 562.213 688.139C562.525 687.969 562.76 687.732 562.916 687.426C563.079 687.113 563.16 686.749 563.16 686.332C563.16 685.902 563.079 685.531 562.916 685.219C562.753 684.906 562.512 684.669 562.193 684.506C561.881 684.337 561.49 684.252 561.021 684.252H558.746V696H555.562V681.781ZM563.434 696L560.24 689.682L563.6 689.672L566.842 695.854V696H563.434ZM575.4 684.486L571.729 696H568.33L573.594 681.781H575.742L575.4 684.486ZM578.447 696L574.766 684.486L574.385 681.781H576.562L581.846 696H578.447ZM578.291 690.707V693.168H570.879V690.707H578.291ZM585.551 681.781H588.188L591.605 691.947L595.014 681.781H597.65L592.67 696H590.531L585.551 681.781ZM584.027 681.781H586.713L587.211 692.318V696H584.027V681.781ZM596.488 681.781H599.184V696H595.99V692.318L596.488 681.781ZM612.215 693.539V696H604.646V693.539H612.215ZM605.73 681.781V696H602.547V681.781H605.73ZM611.238 687.504V689.887H604.646V687.504H611.238ZM612.225 681.781V684.252H604.646V681.781H612.225ZM626.506 681.781V696H623.332L617.961 686.811V696H614.777V681.781H617.961L623.342 690.971V681.781H626.506Z" fill="white"/>
<path d="M843.408 581.221C843.408 580.999 843.376 580.801 843.311 580.625C843.245 580.443 843.125 580.273 842.949 580.117C842.773 579.961 842.52 579.805 842.188 579.648C841.862 579.486 841.432 579.316 840.898 579.141C840.273 578.932 839.671 578.698 839.092 578.438C838.512 578.171 837.995 577.861 837.539 577.51C837.083 577.152 836.722 576.735 836.455 576.26C836.188 575.778 836.055 575.218 836.055 574.58C836.055 573.968 836.191 573.418 836.465 572.93C836.738 572.435 837.119 572.015 837.607 571.67C838.102 571.318 838.682 571.051 839.346 570.869C840.01 570.68 840.736 570.586 841.523 570.586C842.565 570.586 843.483 570.768 844.277 571.133C845.078 571.491 845.703 572.002 846.152 572.666C846.608 573.324 846.836 574.102 846.836 575H843.428C843.428 574.642 843.353 574.326 843.203 574.053C843.06 573.779 842.842 573.564 842.549 573.408C842.256 573.252 841.888 573.174 841.445 573.174C841.016 573.174 840.654 573.239 840.361 573.369C840.068 573.499 839.847 573.675 839.697 573.896C839.548 574.111 839.473 574.349 839.473 574.609C839.473 574.824 839.531 575.02 839.648 575.195C839.772 575.365 839.945 575.524 840.166 575.674C840.394 575.824 840.667 575.967 840.986 576.104C841.312 576.24 841.676 576.374 842.08 576.504C842.835 576.745 843.506 577.015 844.092 577.314C844.684 577.607 845.182 577.943 845.586 578.32C845.996 578.691 846.305 579.115 846.514 579.59C846.729 580.065 846.836 580.602 846.836 581.201C846.836 581.839 846.712 582.406 846.465 582.9C846.217 583.395 845.863 583.815 845.4 584.16C844.938 584.499 844.385 584.756 843.74 584.932C843.096 585.107 842.376 585.195 841.582 585.195C840.853 585.195 840.133 585.104 839.424 584.922C838.721 584.733 838.083 584.447 837.51 584.062C836.937 583.672 836.478 583.174 836.133 582.568C835.794 581.956 835.625 581.23 835.625 580.391H839.062C839.062 580.807 839.118 581.159 839.229 581.445C839.339 581.732 839.502 581.963 839.717 582.139C839.932 582.308 840.195 582.432 840.508 582.51C840.82 582.581 841.178 582.617 841.582 582.617C842.018 582.617 842.37 582.555 842.637 582.432C842.904 582.301 843.099 582.132 843.223 581.924C843.346 581.709 843.408 581.475 843.408 581.221ZM863.235 577.607V578.184C863.235 579.271 863.082 580.247 862.776 581.113C862.476 581.973 862.05 582.708 861.496 583.32C860.943 583.926 860.289 584.391 859.534 584.717C858.778 585.036 857.945 585.195 857.034 585.195C856.116 585.195 855.276 585.036 854.514 584.717C853.759 584.391 853.101 583.926 852.541 583.32C851.988 582.708 851.558 581.973 851.252 581.113C850.953 580.247 850.803 579.271 850.803 578.184V577.607C850.803 576.52 850.953 575.544 851.252 574.678C851.558 573.812 851.985 573.076 852.532 572.471C853.085 571.859 853.739 571.393 854.495 571.074C855.256 570.749 856.096 570.586 857.014 570.586C857.926 570.586 858.759 570.749 859.514 571.074C860.276 571.393 860.933 571.859 861.487 572.471C862.04 573.076 862.47 573.812 862.776 574.678C863.082 575.544 863.235 576.52 863.235 577.607ZM859.758 578.184V577.588C859.758 576.885 859.696 576.266 859.573 575.732C859.455 575.192 859.28 574.74 859.045 574.375C858.811 574.01 858.521 573.737 858.176 573.555C857.838 573.366 857.45 573.271 857.014 573.271C856.558 573.271 856.161 573.366 855.823 573.555C855.484 573.737 855.201 574.01 854.973 574.375C854.745 574.74 854.573 575.192 854.455 575.732C854.345 576.266 854.289 576.885 854.289 577.588V578.184C854.289 578.88 854.345 579.499 854.455 580.039C854.573 580.573 854.745 581.025 854.973 581.396C855.207 581.768 855.494 582.048 855.832 582.236C856.177 582.425 856.578 582.52 857.034 582.52C857.47 582.52 857.857 582.425 858.196 582.236C858.534 582.048 858.817 581.768 859.045 581.396C859.28 581.025 859.455 580.573 859.573 580.039C859.696 579.499 859.758 578.88 859.758 578.184ZM875.327 570.781H878.755V580.068C878.755 581.175 878.524 582.113 878.061 582.881C877.599 583.643 876.951 584.219 876.118 584.609C875.285 585 874.305 585.195 873.179 585.195C872.065 585.195 871.085 585 870.239 584.609C869.399 584.219 868.742 583.643 868.266 582.881C867.798 582.113 867.563 581.175 867.563 580.068V570.781H871.001V580.068C871.001 580.654 871.085 581.133 871.255 581.504C871.424 581.868 871.671 582.135 871.997 582.305C872.322 582.474 872.716 582.559 873.179 582.559C873.647 582.559 874.041 582.474 874.36 582.305C874.679 582.135 874.92 581.868 875.083 581.504C875.246 581.133 875.327 580.654 875.327 580.068V570.781ZM895.388 570.781V585H891.97L886.941 576.152V585H883.513V570.781H886.941L891.97 579.629V570.781H895.388ZM904.775 585H901.621L901.64 582.363H904.775C905.426 582.363 905.976 582.207 906.425 581.895C906.881 581.582 907.226 581.117 907.461 580.498C907.701 579.873 907.822 579.105 907.822 578.193V577.578C907.822 576.895 907.754 576.296 907.617 575.781C907.487 575.26 907.291 574.827 907.031 574.482C906.77 574.131 906.445 573.867 906.054 573.691C905.67 573.516 905.227 573.428 904.726 573.428H901.562V570.781H904.726C905.69 570.781 906.572 570.947 907.373 571.279C908.18 571.605 908.877 572.074 909.463 572.686C910.055 573.291 910.511 574.01 910.83 574.844C911.155 575.671 911.318 576.589 911.318 577.598V578.193C911.318 579.196 911.155 580.114 910.83 580.947C910.511 581.781 910.058 582.5 909.472 583.105C908.886 583.711 908.193 584.18 907.392 584.512C906.598 584.837 905.726 585 904.775 585ZM903.584 570.781V585H900.156V570.781H903.584Z" fill="white"/>
<path d="M454 357V305H985V357H454Z" fill="black"/>
<path d="M664.5 305L699 361H644.5L611 305H664.5Z" fill="white"/>
<path d="M746.5 305L781 361H726.5L693 305H746.5Z" fill="white"/>
<path d="M829.5 305L864 361H809.5L776 305H829.5Z" fill="white"/>
<path d="M911.5 305L946 361H891.5L858 305H911.5Z" fill="white"/>
<circle cx="481.5" cy="327.5" r="6.5" fill="#686868"/>
<path d="M467.5 406C467.667 378.667 467.9 321.5 467.5 311.5H539.5L550.5 325.5L597 401.5L593.5 406H467.5Z" fill="black" stroke="white" stroke-width="0.5"/>
<circle cx="571.5" cy="396.5" r="6.5" fill="#686868"/>
<circle cx="481.5" cy="396.5" r="6.5" fill="#686868"/>
<circle cx="481.5" cy="327.5" r="6.5" fill="#686868"/>
</svg>
